<svg width="590" height="588" viewBox="0 0 590 588" fill="none" xmlns="http://www.w3.org/2000/svg">
<path d="M45.75 0.830078H544.25C569.05 0.830078 589.15 20.9301 589.15 45.7301V542.13C589.15 566.93 569.05 587.03 544.25 587.03H45.75C20.95 587.03 0.850006 566.93 0.850006 542.13V45.7301C0.950006 20.9301 20.95 0.830078 45.75 0.830078Z" fill="#E33B70"/>
<path d="M589.15 267.93C546.95 277.83 508.35 280.83 474.35 276.83C472.75 276.63 471.15 276.43 469.65 276.23C470.45 273.43 471.25 270.63 471.95 267.83C488.35 205.33 488.15 147.83 471.35 109.93C461.65 88.1301 448.15 71.1301 431.15 59.3301C415.45 48.2301 396.65 42.3301 377.45 42.2301H377.15C338.85 42.2301 303.75 65.3301 287.65 101.03C266.45 148.03 281.25 205.33 328.35 258.33C348.65 281.23 373.85 299.33 402.15 311.23C387.35 344.23 361.85 381.93 340.15 404.13C317.25 427.43 292.25 442.63 265.65 449.23C236.05 456.63 204.15 453.33 170.95 439.33C111.95 414.53 91.95 363.23 85.45 324.53C76.45 270.63 93.95 196.33 123.45 130.33C143.35 85.7301 171.05 42.0301 205.05 0.830078H139.65C114.75 34.6301 93.55 70.9301 76.25 109.23C42.15 185.43 23.75 268.23 34.45 333.03C46.55 405.83 87.9499 460.53 150.85 486.93C179.05 498.83 206.85 504.73 234.05 504.73C248.95 504.73 263.65 502.93 278.15 499.33C314.15 490.33 347.35 470.53 376.95 440.23C404.75 411.93 434.55 367.03 452.15 325.83C492.65 333.13 538.55 331.53 589.15 320.83V267.93ZM422.05 254.73C421.35 257.33 420.65 259.93 419.95 262.53C399.65 253.73 381.65 240.63 366.95 224.13C333.95 187.03 322.25 149.93 334.65 122.33C342.45 105.03 359.15 93.9301 377.15 93.9301H377.35C396.95 94.0301 413.65 107.13 424.25 131.03C435.95 157.33 435.15 204.83 422.05 254.73Z" fill="#323232"/>
</svg>
