<svg width="623" height="541" viewBox="0 0 623 541" fill="none" xmlns="http://www.w3.org/2000/svg">
<path d="M49.41 280.27C34.01 265.29 21.72 247.4 13.24 227.65C4.77 207.9 0.270003 186.68 0.0200027 165.17C-0.229997 143.7 3.76 122.36 11.77 102.42C19.77 82.4799 31.64 64.3199 46.69 48.9799C61.73 33.6499 79.66 21.3999 99.44 13.0199C119.22 4.60991 140.46 0.199901 161.95 0.00990101C183.44 -0.150099 204.75 3.9299 224.66 12.0099C244.57 20.0899 262.69 32.0299 277.98 47.1199C278.75 47.8899 279.51 48.6299 280.26 49.3899L311.64 80.7799L342.32 49.3899C357.41 33.9699 375.43 21.6999 395.31 13.2899C415.17 4.8899 436.51 0.479902 458.09 0.369902C479.68 0.259902 501.07 4.41991 521.04 12.6399C541 20.8299 559.14 32.9299 574.39 48.1899C589.65 63.4499 601.73 81.5799 609.95 101.55C618.16 121.51 622.33 142.91 622.19 164.49C622.08 186.07 617.7 207.41 609.29 227.3C600.85 247.15 588.58 265.18 573.16 280.27L313.03 540.4L49.41 280.27Z" fill="#FFD3A0"/>
</svg>
