<svg width="742" height="601" viewBox="0 0 742 601" fill="none" xmlns="http://www.w3.org/2000/svg">
<path d="M41.89 0H700.36C711.05 0 721.31 4.23999 728.86 11.8C736.42 19.36 740.66 29.61 740.66 40.29V558.86C740.66 569.55 736.42 579.79 728.86 587.35C721.31 594.91 711.05 599.15 700.36 599.15H41.89C31.2 599.15 20.96 594.91 13.4 587.35C5.83999 579.79 1.60001 569.55 1.60001 558.86V40.29C1.60001 29.61 5.83999 19.36 13.4 11.8C20.96 4.23999 31.2 0 41.89 0Z" fill="white"/>
<path d="M161.62 110.13H67.81C55.66 110.13 45.81 119.98 45.81 132.13V368.19C45.81 380.34 55.66 390.18 67.81 390.18H161.62C173.77 390.18 183.62 380.34 183.62 368.19V132.13C183.62 119.98 173.77 110.13 161.62 110.13Z" fill="#CECECE"/>
<path d="M87.99 165.16C84.65 165.16 81.45 163.84 79.09 161.48C76.73 159.12 75.41 155.92 75.41 152.58C75.41 149.24 76.73 146.04 79.09 143.69C81.45 141.33 84.65 140 87.99 140H141.8C145.14 140 148.34 141.33 150.7 143.69C153.06 146.04 154.38 149.24 154.38 152.58C154.38 155.92 153.06 159.12 150.7 161.48C148.34 163.84 145.14 165.16 141.8 165.16H87.99Z" fill="white"/>
<path d="M90.77 168.03C87.73 168.03 84.76 167.13 82.24 165.44C79.71 163.76 77.74 161.36 76.58 158.55C75.42 155.74 75.11 152.65 75.7 149.67C76.3 146.69 77.76 143.96 79.91 141.81C82.06 139.66 84.79 138.2 87.77 137.6C90.75 137.01 93.84 137.32 96.65 138.48C99.46 139.64 101.86 141.61 103.54 144.14C105.23 146.66 106.13 149.63 106.13 152.67C106.16 154.67 105.78 156.66 105.03 158.51C104.27 160.36 103.16 162.04 101.74 163.46C100.31 164.91 98.6 166.07 96.72 166.85C94.83 167.64 92.81 168.04 90.77 168.03Z" fill="white"/>
<path d="M87.99 262.47C86.34 262.47 84.7 262.15 83.18 261.51C81.65 260.88 80.26 259.96 79.09 258.79C77.93 257.62 77 256.23 76.37 254.7C75.73 253.18 75.41 251.54 75.41 249.89C75.41 248.24 75.73 246.6 76.37 245.08C77 243.55 77.93 242.16 79.09 240.99C80.26 239.83 81.65 238.9 83.18 238.27C84.7 237.63 86.34 237.31 87.99 237.31H141.8C143.45 237.31 145.09 237.63 146.62 238.27C148.14 238.9 149.53 239.83 150.7 240.99C151.87 242.16 152.79 243.55 153.43 245.08C154.06 246.6 154.38 248.24 154.38 249.89C154.38 251.54 154.06 253.18 153.43 254.7C152.79 256.23 151.87 257.62 150.7 258.79C149.53 259.96 148.14 260.88 146.62 261.51C145.09 262.15 143.45 262.47 141.8 262.47H87.99Z" fill="white"/>
<path d="M139.02 265.25C134.95 265.25 131.04 263.63 128.16 260.75C125.28 257.87 123.66 253.96 123.66 249.89C123.64 247.89 124.01 245.91 124.77 244.05C125.52 242.2 126.64 240.52 128.05 239.1C129.83 237.3 132.02 235.96 134.44 235.2C136.86 234.45 139.42 234.3 141.91 234.78C144.4 235.26 146.73 236.35 148.7 237.94C150.66 239.54 152.21 241.6 153.19 243.93C154.17 246.27 154.55 248.81 154.31 251.33C154.08 253.85 153.22 256.28 151.82 258.39C150.41 260.5 148.51 262.23 146.28 263.43C144.05 264.62 141.56 265.25 139.02 265.25Z" fill="#FFF417"/>
<path d="M87.99 359.78C84.65 359.78 81.45 358.46 79.09 356.1C76.73 353.74 75.41 350.54 75.41 347.2C75.41 343.86 76.73 340.66 79.09 338.3C81.45 335.94 84.65 334.62 87.99 334.62H141.8C145.14 334.62 148.33 335.95 150.69 338.31C153.05 340.67 154.37 343.86 154.37 347.2C154.37 350.53 153.05 353.73 150.69 356.09C148.33 358.45 145.14 359.78 141.8 359.78H87.99Z" fill="white"/>
<path d="M139.02 362.56C134.95 362.56 131.04 360.94 128.16 358.06C125.28 355.18 123.66 351.27 123.66 347.2C123.64 345.2 124.01 343.22 124.77 341.36C125.52 339.51 126.64 337.83 128.05 336.41C129.83 334.6 132.02 333.26 134.44 332.51C136.86 331.76 139.42 331.61 141.91 332.09C144.4 332.57 146.73 333.66 148.7 335.25C150.66 336.85 152.21 338.9 153.19 341.24C154.17 343.58 154.55 346.12 154.31 348.64C154.08 351.16 153.22 353.59 151.82 355.7C150.41 357.81 148.51 359.54 146.28 360.73C144.05 361.93 141.56 362.56 139.02 362.56Z" fill="#FFF417"/>
<path d="M87.99 213.86C84.65 213.86 81.45 212.54 79.09 210.18C76.73 207.82 75.41 204.62 75.41 201.28C75.41 197.94 76.73 194.74 79.09 192.38C81.45 190.03 84.65 188.7 87.99 188.7H141.8C145.14 188.7 148.34 190.03 150.7 192.38C153.06 194.74 154.38 197.94 154.38 201.28C154.38 204.62 153.06 207.82 150.7 210.18C148.34 212.54 145.14 213.86 141.8 213.86H87.99Z" fill="white"/>
<path d="M90.77 216.55C99.25 216.55 106.13 209.68 106.13 201.19C106.13 192.71 99.25 185.83 90.77 185.83C82.29 185.83 75.41 192.71 75.41 201.19C75.41 209.68 82.29 216.55 90.77 216.55Z" fill="white"/>
<path d="M87.99 311.17C84.65 311.17 81.45 309.85 79.09 307.49C76.73 305.13 75.41 301.93 75.41 298.59C75.41 295.25 76.73 292.05 79.09 289.69C81.45 287.33 84.65 286.01 87.99 286.01H141.8C145.14 286.01 148.34 287.33 150.7 289.69C153.06 292.05 154.38 295.25 154.38 298.59C154.38 301.93 153.06 305.13 150.7 307.49C148.34 309.85 145.14 311.17 141.8 311.17H87.99Z" fill="white"/>
<path d="M90.77 313.95C99.25 313.95 106.13 307.07 106.13 298.59C106.13 290.11 99.25 283.23 90.77 283.23C82.29 283.23 75.41 290.11 75.41 298.59C75.41 307.07 82.29 313.95 90.77 313.95Z" fill="white"/>
<path d="M674.44 110.13H243.69C231.54 110.13 221.69 119.98 221.69 132.13V368.19C221.69 380.34 231.54 390.18 243.69 390.18H674.44C686.6 390.18 696.44 380.34 696.44 368.19V132.13C696.44 119.98 686.6 110.13 674.44 110.13Z" fill="#CECECE"/>
<path d="M262.7 342.81H655.43" stroke="white" stroke-width="4" stroke-linecap="round" stroke-linejoin="round"/>
<path d="M351.22 360.59C360.89 360.59 368.73 352.75 368.73 343.07C368.73 333.4 360.89 325.56 351.22 325.56C341.55 325.56 333.7 333.4 333.7 343.07C333.7 352.75 341.55 360.59 351.22 360.59Z" fill="#FFF417"/>
<path d="M271.31 191.08C269.02 191.08 266.82 190.17 265.21 188.55C263.59 186.93 262.68 184.74 262.67 182.45V148.63C262.65 146.91 263.15 145.21 264.11 143.78C264.91 142.6 265.99 141.63 267.25 140.97C268.51 140.3 269.92 139.95 271.34 139.95C273.06 139.95 274.74 140.47 276.17 141.44L301.46 158.3C302.65 159.09 303.63 160.17 304.31 161.43C304.99 162.7 305.34 164.11 305.34 165.54C305.34 166.97 304.99 168.39 304.31 169.65C303.63 170.91 302.65 171.99 301.46 172.78L276.17 189.64C274.71 190.56 273.03 191.06 271.31 191.08Z" fill="#FFC723"/>
<path d="M1.62 72.7L1.60001 40.29C1.61001 29.61 5.86 19.37 13.41 11.82C20.97 4.26001 31.21 0.01 41.89 0H700.36C711.05 0.01 721.29 4.26001 728.85 11.82C736.4 19.37 740.65 29.61 740.66 40.29V72.7H1.62Z" fill="#CECECE"/>
<path d="M278.39 36.98H463.95" stroke="white" stroke-width="4" stroke-linecap="round" stroke-linejoin="round"/>
<path d="M58.39 49.8301C65.34 49.8301 70.98 44.1901 70.98 37.2401C70.98 30.3001 65.34 24.6602 58.39 24.6602C51.45 24.6602 45.81 30.3001 45.81 37.2401C45.81 44.1901 51.45 49.8301 58.39 49.8301Z" fill="#FF9317"/>
<path d="M99.2 49.8301C106.15 49.8301 111.78 44.1901 111.78 37.2401C111.78 30.3001 106.15 24.6602 99.2 24.6602C92.25 24.6602 86.62 30.3001 86.62 37.2401C86.62 44.1901 92.25 49.8301 99.2 49.8301Z" fill="white"/>
<path d="M140.01 49.8301C146.96 49.8301 152.59 44.1901 152.59 37.2401C152.59 30.3001 146.96 24.6602 140.01 24.6602C133.06 24.6602 127.43 30.3001 127.43 37.2401C127.43 44.1901 133.06 49.8301 140.01 49.8301Z" fill="white"/>
<path d="M739.74 434.11H2.51999" stroke="#CECECE" stroke-width="4" stroke-linecap="round" stroke-linejoin="round"/>
<path d="M437.05 440.38V598.23" stroke="#CECECE" stroke-width="4" stroke-linecap="round" stroke-linejoin="round"/>
<path d="M436.9 449.41C435.98 449.41 435.08 449.18 434.28 448.75C433.47 448.32 432.78 447.7 432.27 446.95L421.06 430.08C420.49 429.16 420.18 428.1 420.16 427.02C420.17 425.55 420.77 424.15 421.82 423.12C422.86 422.09 424.28 421.51 425.75 421.52H448.26C449.35 421.5 450.42 421.82 451.32 422.43C452.54 423.25 453.38 424.51 453.68 425.95C453.82 426.66 453.83 427.39 453.68 428.1C453.54 428.81 453.26 429.49 452.85 430.08L441.64 446.95C441.25 447.63 440.65 448.17 439.93 448.48C439.03 449.09 437.98 449.41 436.9 449.41Z" fill="white"/>
<path d="M61.08 504.98C57.03 504.98 53.15 503.37 50.29 500.51C47.42 497.65 45.81 493.76 45.81 489.71C45.81 485.66 47.42 481.78 50.29 478.91C53.15 476.05 57.03 474.44 61.08 474.44H253.91C257.96 474.44 261.84 476.05 264.71 478.91C267.57 481.78 269.18 485.66 269.18 489.71C269.18 493.76 267.57 497.65 264.71 500.51C261.84 503.37 257.96 504.98 253.91 504.98H61.08Z" fill="#FFC723"/>
<path d="M234.18 557.9C230.13 557.9 226.24 556.29 223.38 553.43C220.52 550.56 218.91 546.68 218.91 542.63C218.91 538.58 220.52 534.69 223.38 531.83C226.24 528.96 230.13 527.35 234.18 527.35H368.71C372.76 527.35 376.64 528.96 379.51 531.83C382.37 534.69 383.98 538.58 383.98 542.63C383.98 546.68 382.37 550.56 379.51 553.43C376.64 556.29 372.76 557.9 368.71 557.9H234.18Z" fill="#FF9317"/>
<path d="M421.62 557.9C417.57 557.9 413.69 556.29 410.82 553.43C407.96 550.56 406.35 546.68 406.35 542.63C406.35 538.58 407.96 534.69 410.82 531.83C413.69 528.96 417.57 527.35 421.62 527.35H545.39C549.44 527.35 553.32 528.96 556.19 531.83C559.05 534.69 560.66 538.58 560.66 542.63C560.66 546.68 559.05 550.56 556.19 553.43C553.32 556.29 549.44 557.9 545.39 557.9H421.62Z" fill="#FFF417"/>
</svg>
