<svg width="704" height="849" viewBox="0 0 704 849" fill="none" xmlns="http://www.w3.org/2000/svg">
<path d="M318.83 626.88C491.75 626.88 631.88 486.75 631.88 313.83C631.88 140.91 491.75 0.779785 318.83 0.779785C145.91 0.779785 5.78 140.91 5.78 313.83C5.78 486.75 145.91 626.88 318.83 626.88Z" fill="#CECECE"/>
<path d="M572.68 848.26C572.58 848.07 568.85 835.36 565.13 813.67C560.08 783.8 557.56 753.56 557.58 723.27C557.58 667.56 577.36 618.93 577.36 618.93C577.36 618.93 567.9 620.26 552.99 621.7V507.51C613.57 513.24 649.88 523.28 661.16 537.13C688.87 571.44 671.38 648.74 658.58 705.12C653.04 729.48 648.26 750.6 647.97 763.69C647.5 786.63 664.41 799.62 679.32 811.09C693.27 821.79 706.45 831.92 703.4 848.26H572.68Z" fill="#DD957F"/>
<path d="M464.99 625.9C426.48 625.9 394.66 622.94 370.58 617.02L421.32 502.35C421.41 502.35 425.23 502.25 431.92 502.25C451.89 502.25 503.79 502.64 553 507.41L553.07 621.7C531.76 623.61 499.19 625.9 464.99 625.9Z" fill="#E89E15"/>
<path d="M305.69 281.33C297.67 263.94 289.93 248.84 282.19 235.37C254.38 186.73 223.33 141.82 222.94 141.34C221.13 139.53 209.66 124.43 204.12 116.88C183.86 89.2601 172.39 73.4001 174.02 67.2901C174.13 66.7901 174.37 66.3301 174.7 65.9501C175.03 65.5701 175.45 65.2701 175.93 65.0901C176.69 64.7601 177.5 64.6001 178.32 64.6101C181.66 64.6101 186.63 66.6201 193.13 70.4401C185.1 56.5801 180.04 44.2601 178.13 33.8401C177.46 30.2101 177.84 27.5401 179.27 25.7201C179.93 25.0201 180.74 24.4801 181.63 24.1101C182.51 23.7501 183.47 23.5801 184.43 23.6201C184.75 23.6201 185.08 23.6501 185.39 23.7101C186.73 19.0301 188.83 16.6401 191.79 16.6401C195.14 16.6401 198.29 19.8901 198.29 19.8901C199.82 17.7901 201.63 16.7401 203.64 16.7401C212.72 16.7401 223.61 38.0501 223.99 38.8101C223.8 38.3301 219.79 26.2001 222.18 22.1801C222.35 21.8601 222.6 21.5801 222.9 21.3701C223.19 21.1501 223.54 21.0101 223.9 20.9401H224.38C232.88 20.9401 251.04 59.1601 251.23 59.5501C272.15 79.6101 274.45 102.16 274.73 106.46C277.51 109.81 280.95 113.63 284.77 118.03C301.68 137.23 327.19 166.19 350.89 205.17C358.06 217.02 365.89 231.45 373.92 248.08L305.69 281.33Z" fill="#DD957F"/>
<path d="M394.85 390.07C394.14 390.09 393.44 390.05 392.75 389.98C380.29 389.01 368.35 384.66 358.19 377.41C348.04 370.15 340.07 360.26 335.13 348.79C332.07 341.82 329.11 334.94 326.05 327.58C319.65 312.48 312.96 296.91 305.79 281.33L373.92 247.98C390.26 281.43 405.36 318.5 419.5 353.57C421.05 357.38 421.67 361.51 421.32 365.61C420.74 372.25 417.7 378.44 412.81 382.96C407.92 387.49 401.51 390.02 394.85 390.07Z" fill="#2C2C2C"/>
<path d="M309.9 359.69C309.9 359.69 242.91 323.28 230.49 311.53C215.01 297 212.62 276.93 223.9 257.92C235.27 238.62 255.81 219.22 275.79 219.22C276.65 219.2 277.51 219.23 278.37 219.31C288.21 220.65 296.55 226.4 310.74 232.8C311.62 232.21 316.97 228.68 320.7 227.82C321.1 227.7 321.52 227.64 321.94 227.63C322.67 227.63 323.4 227.82 324.04 228.2C327.86 230.59 328.82 240.43 328.82 240.53C355.78 253.73 360.64 263.08 360.93 273.88C360.86 278.48 359.78 283.01 357.77 287.16C354.24 294.23 342.77 303.02 342.67 303.12C350.32 309.04 361.69 314.39 373.63 319.55L380.99 356.63L309.9 359.69Z" fill="#DD957F"/>
<path d="M355.7 258.54C350.35 252.62 342.2 247.31 328.82 240.62C328.82 240.62 327.86 230.69 324.04 228.3C323.05 227.74 321.88 227.61 320.79 227.91C317.07 228.68 310.95 233.07 310.95 233.07C304.43 229.82 299.75 227.14 294.11 224.65" stroke="black" stroke-width="4" stroke-linecap="round" stroke-linejoin="round"/>
<path d="M293.37 350.61C273.59 339.52 239.19 319.74 230.49 311.62C215.01 297.1 212.62 277.03 223.9 258.01C235.27 238.71 255.81 219.31 275.79 219.31C276.65 219.3 277.51 219.33 278.37 219.41C284.01 220.3 289.54 221.87 294.8 224.62C294.8 224.28 296.04 237.37 270.99 245.49C270.1 245.68 283.14 250.56 283.62 253.91C284.29 258.78 277.6 263.56 275.61 264.84C274.83 265.37 287.92 270.15 290.32 280.32C290.5 280.47 274.45 287.54 270.34 298.53C269.6 300.45 269.28 302.5 269.37 304.56C269.47 306.61 270 308.63 270.91 310.47C273.97 316.88 279.89 320.13 288.59 320.13C299.2 320.13 310.19 315.16 310.12 315.53C310.14 321.93 308.55 328.59 305.64 334.7C302.71 340.81 298.54 346.23 293.37 350.61Z" fill="#181818"/>
<path d="M267.19 611C270.53 605.93 274.16 600.48 277.89 594.75C302.25 557.1 335.6 505.69 382.81 494.7L374.59 482.38L480.66 457.15C482.38 499.67 477.31 532.07 445.78 581.28C420.38 620.83 387.15 654.75 348.13 680.96L267.19 611Z" fill="#E89E15"/>
<path d="M4.89 762.93C2.19 759.56 0.789978 755.34 0.929978 751.03C1.06998 746.72 2.74998 742.6 5.64998 739.42C21.04 722.7 55.15 691.36 110.28 669.67C152.81 652.94 179.94 650.17 201.73 647.88C217.59 646.26 230.11 644.92 242.72 638.61C250.56 634.69 259.16 622.94 267.28 610.9L348.31 680.66C333.72 690.46 318.54 699.34 302.83 707.22C271.58 722.8 226.38 732.92 186.54 741.81C135.03 753.28 90.5 763.22 84.77 781.47C81.04 793.41 81.71 805.45 82.29 816.15C83.05 830.2 83.72 842.33 73.5 848.26L4.89 762.93Z" fill="#DD957F"/>
<path d="M152.52 686.58C152 686.58 151.5 686.43 151.07 686.14C150.65 685.84 150.31 685.43 150.13 684.96C149.08 682.66 149.65 678.27 151.66 673.11C153.38 668.81 156.82 662.02 163.8 653.71C137.89 659.18 112.77 667.82 88.98 679.41C88.34 679.72 87.66 679.88 86.97 679.89C86.62 679.91 86.26 679.87 85.92 679.8C84.76 679.53 83.77 678.81 83.14 677.81C82.51 676.8 82.31 675.6 82.57 674.44C85.54 662.79 107.99 648.93 129.68 635.55C146.21 625.33 161.79 615.68 167.52 607.75C176.31 595.71 190.26 563.7 203.83 532.83C212.05 514.2 219.79 496.52 225.81 484.58C234.12 468.14 241.1 454.57 247.21 442.91L314.77 485.05C305.69 496.81 297.86 507.41 291.65 516.49C286.01 524.71 280.18 536.84 273.3 550.89C259.16 580.04 241.67 616.25 214.53 643.39C199.34 658.68 160.26 686.58 152.52 686.58Z" fill="#DD957F"/>
<path d="M247.21 442.92C280.08 380.62 291.93 369.24 309.42 359.49C318.21 355.44 327.24 351.94 336.46 348.98C345.64 345.93 352.23 343.73 360.16 337.9C369.33 331.21 373.44 319.55 373.44 319.46C375.07 320.13 376.69 320.79 378.32 321.46C400.29 330.83 425.23 341.43 441.96 359.49C463.55 382.62 477.29 417.7 480.64 457.54L374.69 482.47L347.93 444.06C347.93 444.06 331.83 463.18 314.72 485.16L247.21 442.92Z" fill="#2C2C2C"/>
<path d="M414.25 623.42C422.97 613.56 431.1 603.18 438.61 592.36" stroke="black" stroke-width="4" stroke-linecap="round" stroke-linejoin="round"/>
<path d="M193.13 70.6299C202.3 77.5099 208.9 83.1499 208.9 83.1499C208.9 83.1499 237.09 84.0999 250.27 101.97" stroke="black" stroke-width="4" stroke-linecap="round" stroke-linejoin="round"/>
<path d="M185.39 23.8999C192.94 33.2699 213.58 69.0099 213.58 69.0099" stroke="black" stroke-width="4" stroke-linecap="round" stroke-linejoin="round"/>
<path d="M198.29 20.0801C198.29 20.0801 221.13 55.9101 224.85 62.5101" stroke="black" stroke-width="4" stroke-linecap="round" stroke-linejoin="round"/>
<path d="M88.59 679.41C112.37 667.8 137.51 659.2 163.47 653.8C148.41 671.67 146.5 686.68 152.14 686.68C159.11 686.68 192.94 663.17 210.52 646.92" stroke="black" stroke-width="4" stroke-linecap="round" stroke-linejoin="round"/>
<path d="M223.99 38.8101L236.13 59.6401" stroke="black" stroke-width="4" stroke-linecap="round" stroke-linejoin="round"/>
</svg>
