<svg width="188" height="302" viewBox="0 0 188 302" fill="none" xmlns="http://www.w3.org/2000/svg">
<path d="M23.4 299.12L75.84 129.19" stroke="black" stroke-width="4" stroke-linecap="round" stroke-linejoin="round"/>
<path d="M108.01 121.56L185.53 299.12" stroke="black" stroke-width="4" stroke-linecap="round" stroke-linejoin="round"/>
<path d="M144.5 134.46C175.11 88.27 172.53 32.6599 138.74 10.2699C104.94 -12.1301 52.73 7.16993 22.11 53.3599C-8.49 99.5499 -5.90998 155.16 27.88 177.55C61.68 199.95 113.89 180.66 144.5 134.46Z" fill="#616161"/>
<path d="M129.01 124.19C151.87 89.6799 149.95 48.1499 124.72 31.4199C99.48 14.6999 60.48 29.1199 37.61 63.6299C14.74 98.1299 16.67 139.67 41.9 156.39C67.14 173.11 106.14 158.7 129.01 124.19Z" fill="black"/>
<path d="M113.96 114.22C129.28 91.09 127.98 63.25 111.06 52.03C94.13 40.82 67.99 50.47 52.66 73.6C37.34 96.72 38.64 124.57 55.57 135.78C72.49 146.99 98.63 137.34 113.96 114.22Z" fill="#E89E15"/>
<path d="M100.15 105.06C108.56 92.37 107.85 77.0699 98.55 70.9099C89.25 64.7499 74.89 70.05 66.47 82.75C58.06 95.45 58.77 110.74 68.07 116.9C77.37 123.07 91.73 117.77 100.15 105.06Z" fill="#328DFF"/>
<path d="M89.07 97.73C91.94 93.39 91.69 88.17 88.51 86.06C85.33 83.95 80.42 85.76 77.55 90.09C74.67 94.42 74.93 99.65 78.11 101.76C81.29 103.87 86.2 102.06 89.07 97.73Z" fill="#CED0D2"/>
</svg>
