<svg width="91" height="100" viewBox="0 0 91 100" fill="none" xmlns="http://www.w3.org/2000/svg">
<g clip-path="url(#clip0_203_737)">
<path d="M16.9825 30.7287C17.3225 27.6351 17.6606 22.7308 18.4532 18.1665C18.4532 18.1665 18.4532 18.129 18.4908 18.129L49.0078 4.92628H49.0453L56.9662 18.5065L62.8885 49.2113C62.8134 56.6419 62.7007 62.414 62.7007 62.4891C62.6631 62.6393 58.3242 87.574 43.7259 86.0281C29.1672 84.4804 33.1642 64.8651 33.2017 64.7149V62.8666V61.1311L33.2413 55.0209C33.2413 54.9834 33.2017 54.9834 33.2017 54.9834C32.5613 55.2838 25.8838 58.1897 19.5859 53.8131C12.6831 49.0986 16.3421 36.6886 16.9825 30.7287Z" fill="#A66241"/>
<path opacity="0.2" d="M33.2413 55.0209L33.2017 61.0559C33.2017 61.0935 33.2413 61.0935 33.2788 61.0935C33.9569 60.2633 39.4265 53.4731 42.2552 50.1166C42.2928 50.0791 42.2552 50.0415 42.2177 50.0791C37.6909 52.9454 33.5793 54.8312 33.2413 55.0209C33.2413 54.9834 33.2413 54.9834 33.2413 55.0209Z" fill="#171717"/>
<path d="M22.0371 8.39744C25.8463 4.09605 35.05 -0.316046 45.0464 0.739536C54.7028 1.75756 62.5129 9.60523 62.8509 23.1459C63.0031 29.9736 62.9656 40.648 62.8885 49.1737C62.8885 49.2113 62.8885 49.2113 62.8509 49.2113C62.2856 49.1737 55.9857 48.4957 52.479 45.2894V45.2499C53.0819 44.6845 63.5309 34.7257 55.7604 28.5029C51.5736 25.1464 43.3504 33.255 42.783 33.8203C42.783 33.8203 42.7455 33.8203 42.7079 33.8203C42.3679 33.2926 38.5587 27.0698 41.8401 20.0523C41.8401 20.0148 41.8401 19.9772 41.8026 20.0148C27.4692 25.6742 18.8684 18.5441 18.4908 18.1665V18.129C19.1708 13.8295 20.1888 10.471 22.0371 8.39744Z" fill="#17151C"/>
<path d="M51.5736 36.0837L48.3673 39.1022" stroke="#171717" stroke-width="1.02" stroke-linecap="round" stroke-linejoin="round"/>
<path d="M24.8658 35.1033C24.4507 35.7833 23.9229 36.8764 24.0731 37.5188C24.2253 37.932 24.5258 38.3095 24.9409 38.4993" stroke="#171717" stroke-width="1.02" stroke-linecap="round" stroke-linejoin="round"/>
<path d="M28.2618 41.668C28.1848 42.9114 27.0916 43.8543 25.8463 43.7792C25.8087 43.7792 25.7336 43.7792 25.696 43.7792" stroke="#171717" stroke-width="1.02" stroke-linecap="round" stroke-linejoin="round"/>
<path d="M33.2413 54.9834C33.2413 54.9834 40.7094 51.3244 42.4074 49.8913" stroke="#171717" stroke-width="1.02" stroke-linecap="round" stroke-linejoin="round"/>
<path d="M31.1281 33.2174C31.7726 33.2174 32.2964 32.6936 32.2964 32.0492C32.2964 31.4028 31.7726 30.879 31.1281 30.879C30.4837 30.879 29.9579 31.4028 29.9579 32.0492C29.9579 32.6936 30.4837 33.2174 31.1281 33.2174Z" fill="#17151C"/>
<path d="M21.1693 32.1619C21.8137 32.1619 22.3395 31.638 22.3395 30.9916C22.3395 30.3472 21.8137 29.8234 21.1693 29.8234C20.5249 29.8234 20.001 30.3472 20.001 30.9916C20.001 31.638 20.5249 32.1619 21.1693 32.1619Z" fill="#17151C"/>
<path d="M90.6519 71.3548V71.3152C88.3885 69.3919 85.8998 67.6958 83.2964 66.2983C76.8463 63.1315 69.981 61.2062 62.8134 60.6033C62.7758 60.6033 62.7383 60.6033 62.7383 60.6408C62.2105 61.5086 54.4023 74.5215 43.1981 73.3157C33.5793 72.2977 33.2413 63.5071 33.2413 62.9042C33.2413 62.8666 33.2413 62.8666 33.2017 62.8666C32.4486 62.9417 20.001 64.4895 12.1158 71.165C12.1158 71.165 6.19348 75.4269 0.0458069 85.0081V85.0457C11.4753 94.7792 24.9785 99.4562 39.2763 99.4186C60.0598 99.4186 79.3726 88.8569 90.6519 71.3548Z" fill="#FFC930"/>
</g>
<defs>
<clipPath id="clip0_203_737">
<rect width="90.6977" height="100" fill="white"/>
</clipPath>
</defs>
</svg>
