<svg width="258" height="258" viewBox="0 0 258 258" fill="none" xmlns="http://www.w3.org/2000/svg">
<path d="M165.72 195.4L195.96 165.16L249.51 218.71C257.87 227.07 257.87 240.59 249.51 248.95C241.15 257.31 227.63 257.31 219.27 248.95L165.72 195.4Z" fill="#FFD761" stroke="black" stroke-width="4"/>
<path d="M164.08 149.85L150.35 163.58L173.96 187.19L187.69 173.46L164.08 149.85Z" fill="#FFD761" stroke="black" stroke-width="4"/>
<path d="M157.25 27.6602C191.27 60.5302 194.59 113.91 164.92 150.73C163.26 152.79 161.49 154.8 159.6 156.74C157.02 159.44 154.21 162.01 151.29 164.36C112.12 196.09 54.62 189.96 22.9 150.79C-8.82998 111.62 -2.70003 54.1202 36.47 22.3902C72.32 -6.5798 124.09 -4.28982 157.25 27.6602Z" fill="#FFD761" stroke="black" stroke-width="4"/>
<path d="M93.85 157.49C129.24 157.49 157.93 128.8 157.93 93.4103C157.93 58.0103 129.24 29.3203 93.85 29.3203C58.46 29.3203 29.77 58.0103 29.77 93.4103C29.77 128.8 58.46 157.49 93.85 157.49Z" fill="white" stroke="black" stroke-width="4"/>
<path d="M195.96 165.16C204.09 173.7 203.75 187.21 195.22 195.34C186.97 203.19 173.97 203.25 165.72 195.4L195.96 165.16Z" fill="#E89E15" stroke="black" stroke-width="4"/>
<path d="M124.6 103.31C129.98 103.31 134.34 98.9503 134.34 93.5803C134.34 88.2003 129.98 83.8403 124.6 83.8403C119.23 83.8403 114.87 88.2003 114.87 93.5803C114.87 98.9503 119.23 103.31 124.6 103.31Z" fill="#E89E15" stroke="black" stroke-width="4"/>
<path d="M94.2 103.31C99.57 103.31 103.93 98.9503 103.93 93.5803C103.93 88.2003 99.57 83.8403 94.2 83.8403C88.82 83.8403 84.46 88.2003 84.46 93.5803C84.46 98.9503 88.82 103.31 94.2 103.31Z" fill="#E89E15" stroke="black" stroke-width="4"/>
<path d="M72.41 98.0902C74.9 93.3302 73.07 87.4402 68.3 84.9502C63.54 82.4502 57.66 84.2901 55.16 89.0501C52.67 93.8201 54.5 99.7001 59.27 102.2C64.03 104.69 69.91 102.85 72.41 98.0902Z" fill="#E89E15" stroke="black" stroke-width="4"/>
<path d="M196.71 225.47L226.31 195.8" stroke="black" stroke-width="4" stroke-linecap="round" stroke-linejoin="round"/>
<path d="M206.04 234.8L235.71 205.14" stroke="black" stroke-width="4" stroke-linecap="round" stroke-linejoin="round"/>
<path d="M215.38 244.14L245.04 214.47" stroke="black" stroke-width="4" stroke-linecap="round" stroke-linejoin="round"/>
<path d="M165.95 151.36C164.29 153.42 162.52 155.43 160.63 157.37C157.99 160.07 155.24 162.64 152.32 164.99" stroke="black" stroke-width="4" stroke-linecap="round" stroke-linejoin="round"/>
</svg>
