<svg width="248" height="639" viewBox="0 0 248 639" fill="none" xmlns="http://www.w3.org/2000/svg">
<path d="M57.63 638.88H190.69C190.69 602.06 160.92 572.39 124.2 572.39C87.48 572.39 57.63 602.16 57.63 638.88Z" fill="#FFF861"/>
<path d="M169.91 166.83C169.91 166.83 208.47 104.21 221.51 54.5401L169.33 32.2201C156.58 26.8101 150.29 14.2501 150.29 0.330078H98.11C98.11 14.1501 91.83 26.7101 79.08 32.2201L26.9 54.5401C39.94 104.21 78.5 166.83 78.5 166.83H169.91Z" fill="#E89E15"/>
<path d="M124.2 400V572.3" stroke="black" stroke-width="4" stroke-linecap="round" stroke-linejoin="round"/>
<path d="M239.87 361.35C238.04 360.96 238.04 360.96 239.87 361.35C219.29 245.87 174.55 166.83 174.55 166.83C174.55 166.83 208.37 109.62 221.42 54.5402L178.61 36.1802L124.11 115.81L69.7 36.2802L26.9 54.6402C39.94 109.72 73.76 166.92 73.76 166.92C73.76 166.92 29.12 245.97 8.54001 361.35C7.18001 368.79 6.01999 376.33 4.85999 384.06H243.45C242.38 376.33 241.23 368.69 239.87 361.35Z" fill="#63A8FF"/>
<path d="M243.54 383.96H4.95999C4.27999 388.79 3.61 393.53 3.03 398.46C2.25 405.12 1.47999 411.79 0.899994 418.65C0.999994 418.65 1.09 418.75 1.09 418.75C16.27 425.9 34.43 419.42 41.58 404.16C48.73 419.33 66.9 425.9 82.07 418.75C88.45 415.75 93.67 410.53 96.66 404.16C103.81 419.33 121.98 425.9 137.15 418.75C143.53 415.75 148.75 410.53 151.74 404.16C158.89 419.33 177.06 425.9 192.23 418.75C198.61 415.75 203.83 410.53 206.82 404.16C213.98 419.33 247.41 418.65 247.51 418.65C247.51 418.65 246.25 405.03 245.48 398.46C244.8 393.62 244.22 388.79 243.54 383.96Z" fill="#FFC723"/>
</svg>
