<svg width="640" height="512" viewBox="0 0 640 512" fill="none" xmlns="http://www.w3.org/2000/svg">
<path d="M45.47 511.48C33.67 511.46 22.36 506.78 14.02 498.43C5.67999 490.09 0.980001 478.78 0.970001 466.99V45.25C0.980001 33.46 5.67999 22.15 14.02 13.81C22.36 5.47001 33.67 0.77001 45.47 0.76001H592.63C604.42 0.77001 615.73 5.47001 624.07 13.81C632.42 22.15 637.11 33.46 637.13 45.25V466.99C637.11 478.78 632.42 490.09 624.07 498.43C615.73 506.78 604.42 511.46 592.63 511.48H45.47Z" fill="#CECECE"/>
<path d="M1 96.3501H639.09" stroke="#131313" stroke-width="4"/>
<path d="M47.79 64.4999C57.13 64.4999 64.71 56.9199 64.71 47.5699C64.71 38.2299 57.13 30.6499 47.79 30.6499C38.44 30.6499 30.86 38.2299 30.86 47.5699C30.86 56.9199 38.44 64.4999 47.79 64.4999Z" fill="#E1E1E1"/>
<path d="M99.07 64.4999C108.42 64.4999 116 56.9199 116 47.5699C116 38.2299 108.42 30.6499 99.07 30.6499C89.73 30.6499 82.15 38.2299 82.15 47.5699C82.15 56.9199 89.73 64.4999 99.07 64.4999Z" fill="#E1E1E1"/>
<path d="M150.35 64.4999C159.7 64.4999 167.27 56.9199 167.27 47.5699C167.27 38.2299 159.7 30.6499 150.35 30.6499C141 30.6499 133.43 38.2299 133.43 47.5699C133.43 56.9199 141 64.4999 150.35 64.4999Z" fill="#E1E1E1"/>
<path d="M470.02 399.93L482.82 391.4C480.59 387.69 478 384.35 475.4 381.01C466.86 370.99 452.95 360.78 437.92 350.02C414.54 333.13 390.42 315.69 384.11 296.02C377.8 275.98 379.28 238.5 388.38 180.98V180.61H333.82C312.67 180.61 295.41 197.13 294.49 218.28L291.15 295.47L257.75 206.22C251.99 191 237.15 180.8 221.01 180.8H184.64V181.17C184.45 192.12 184.45 202.88 184.64 213.27C186.5 272.83 191.69 332.76 200.23 391.58L220.64 399.19L470.02 399.93Z" fill="#FFCC32"/>
<path d="M493.77 432.4V432.03C493.77 431.85 496.18 412.92 482.82 391.21L482.64 391.03H200.04V391.77C203.75 417.19 206.91 431.85 206.91 432.03V432.4H493.77Z" fill="#231A00"/>
</svg>
