<svg width="92" height="115" viewBox="0 0 92 115" fill="none" xmlns="http://www.w3.org/2000/svg">
<defs>
<linearGradient id="paint0_linear_5_72" x1="11.6625" y1="0" x2="105.901" y2="60.4812" gradientUnits="userSpaceOnUse">
<stop stop-color="#FFD3A5"/>
<stop offset="1" stop-color="#FD6585"/>
</linearGradient>
</defs>
<path fill-rule="evenodd" clip-rule="evenodd" d="M73.5082 70.8011H83.5313C87.5169 70.8011 90.7781 67.574 90.7781 63.6294C90.7781 59.6855 87.5169 56.4577 83.5313 56.4577H73.5082C69.5218 56.4577 66.2606 59.6855 66.2606 63.6294C66.2606 67.574 69.5218 70.8011 73.5082 70.8011Z" fill="#19141E"/>
<path d="M34.3184 84.3556C35.8314 80.3032 41.5706 77.9104 47.1371 79.0121C52.7038 80.1138 55.9906 84.2917 54.4771 88.3448L46.8451 108.79C45.3324 112.843 44.8234 114.004 37.9542 114.004C35.0461 114.004 30.6117 114.004 28.1033 114.004C24.515 114.004 23.4132 111.71 26.686 104.801L34.3184 84.3556Z" fill="#19141E"/>
<path fill-rule="evenodd" clip-rule="evenodd" d="M42.9045 103.659C25.7215 103.659 11.6625 89.7474 11.6625 72.7445V56.058C11.6625 39.055 25.7215 25.1432 42.9045 25.1432H45.9074C63.091 25.1432 77.15 39.055 77.15 56.058V72.7445C77.15 89.7474 63.091 103.659 45.9074 103.659H42.9045ZM62.597 7.714C62.597 3.45362 66.0872 0 70.3934 0C74.6989 0 78.1898 3.45362 78.1898 7.714C78.1898 11.9744 74.6989 15.4288 70.3934 15.4288C66.0872 15.4288 62.597 11.9744 62.597 7.714Z" fill="url(#paint0_linear_5_72)"/>
<path d="M67.2606 14.7807C62.1488 19.185 59.2397 24.0554 58.3621 30.6893C58.2007 31.9098 57.0701 32.7696 55.8367 32.6098C54.6032 32.45 53.7346 31.3312 53.896 30.1108C54.9065 22.471 58.2187 16.8116 63.8095 11.8483C64.636 13.1344 65.8372 14.1619 67.2606 14.7807Z" fill="#19141E"/>
<path fill-rule="evenodd" clip-rule="evenodd" d="M54.634 58.2265C55.0274 60.4298 53.5417 62.5307 51.315 62.9199C49.0891 63.3092 46.9652 61.8391 46.5719 59.6357C46.1785 57.4331 47.6642 55.3315 49.8909 54.9422C52.1168 54.553 54.2414 56.0231 54.634 58.2265Z" fill="#19141E"/>
<path fill-rule="evenodd" clip-rule="evenodd" d="M75.8873 58.3126C76.2807 60.516 74.7942 62.6169 72.5683 63.0061C70.3416 63.3954 68.2185 61.9252 67.8252 59.7219C67.4318 57.5192 68.9175 55.4176 71.1442 55.0284C73.3701 54.6391 75.4939 56.11 75.8873 58.3126Z" fill="#19141E"/>
<path opacity="0.403971" fill-rule="evenodd" clip-rule="evenodd" d="M59.4402 53.8518L69.7703 70.0716L58.6512 70.3375L59.4402 53.8518Z" fill="black"/>
<path fill-rule="evenodd" clip-rule="evenodd" d="M7.28957 69.267H17.0138V54.9236H7.28957C3.30316 54.9236 0.0419693 58.1514 0.0419693 62.0953C0.0419693 66.04 3.30316 69.267 7.28957 69.267Z" fill="#19141E"/>
<path d="M57.3389 77.9052C52.4201 78.7298 47.8218 75.9499 47.3226 73.0364" stroke="#19141E" stroke-width="6.41275"/>
</svg>
